{"title":"Bahar DVD 43 (ep. 108- 109-110).avi","uid":15794107,"size":2333560832,"categoryP":"video","categoryS":"tv_shows","magnet":"?xt=urn:btih:10958562121aaf61409d7dae6f3ee7ae4e84f208&amp;dn=Bahar+DVD+43+%28ep.+108-+109-110%29.avi&amp;tr=udp%3A%2F%2Ftracker.leechers-paradise.org%3A6969&amp;tr=udp%3A%2F%2Fzer0day.ch%3A1337&amp;tr=udp%3A%2F%2Fopen.demonii.com%3A1337&amp;tr=udp%3A%2F%2Ftracker.coppersurfer.tk%3A6969&amp;tr=udp%3A%2F%2Fexodus.desync.com%3A6969","seeders":57,"leechers":2,"uploader":"floradis","files":1,"time":1473429164,"description":"Bahar aka O Hayat Benim\r\nGreek Subtitles\r\n\r\nGeneral\r\nComplete name                  : Βahar DVD 43 (ep. 108- 109-110).avi\r\nFormat                         : AVI\r\nFormat/Info                    : Audio Video Interleave\r\nFormat profile                 : OpenDML\r\nFile size                      : 2.17 GiB\r\nDuration                       : 2h 18mn\r\nOverall bit rate mode          : Variable\r\nOverall bit rate               : 2 245 Kbps\r\nWriting application            : VirtualDubMod 1.5.4.1 (build 2178/release)\r\nWriting library                : VirtualDubMod build 2178/release\r\n\r\nVideo\r\nID                             : 0\r\nFormat                         : MPEG-4 Visual\r\nFormat profile                 : Advanced   \r\nFormat settings, BVOP          : 1\r\nFormat settings, QPel          : No\r\nFormat settings, GMC           : No warppoints\r\nFormat settings, Matrix        : Custom\r\nCodec ID                       : XVID\r\nCodec ID/Hint                  : XviD\r\nDuration                       : 2h 18mn\r\nBit rate                       : 2 127 Kbps\r\nWidth                          : 720 pixels\r\nHeight                         : 416 pixels\r\nDisplay aspect ratio           : 1.731\r\nFrame rate                     : 25.000 fps\r\nColor space                    : YUV\r\nChroma subsampling             : 4:2:0\r\nBit depth                      : 8 bits\r\nScan type                      : Progressive\r\nCompression mode               : Lossy\r\nBits/(Pixel*Frame)             : 0.284\r\nStream size                    : 2.06 GiB (95%)\r\nWriting library                : XviD 1.2.1 (UTC 2008-12-04)\r\n\r\nAudio\r\nID                             : 1\r\nFormat                         : MPEG Audio\r\nFormat version                 : Version 1\r\nFormat profile                 : Layer 3\r\nMode                           : Joint stereo\r\nMode extension                 : MS Stereo\r\nCodec ID                       : 55\r\nCodec ID/Hint                  : MP3\r\nDuration                       : 2h 18mn\r\nBit rate mode                  : Variable\r\nBit rate                       : 102 Kbps\r\nNominal bit rate               : 128 Kbps\r\nChannel(s)                     : 2 channels\r\nSampling rate                  : 48.0 KHz\r\nCompression mode               : Lossy\r\nStream size                    : 101 MiB (5%)\r\nAlignment                      : Aligned on interleaves\r\nInterleave, duration           : 24 ms (0.60 video frame)\r\nInterleave, preload duration   : 459 ms\r\nWriting library                : LAME3.98r\r\nEncoding settings              : -m j -V 4 -q 2 -lowpass 17 --abr 128\r\nLanguage                       : Turkish","torrent":{"xt":"urn:btih:10958562121aaf61409d7dae6f3ee7ae4e84f208","amp;dn":"Bahar+DVD+43+%28ep.+108-+109-110%29.avi","amp;tr":["udp%3A%2F%2Ftracker.leechers-paradise.org%3A6969","udp%3A%2F%2Fzer0day.ch%3A1337","udp%3A%2F%2Fopen.demonii.com%3A1337","udp%3A%2F%2Ftracker.coppersurfer.tk%3A6969","udp%3A%2F%2Fexodus.desync.com%3A6969"],"infoHash":"10958562121aaf61409d7dae6f3ee7ae4e84f208","infoHashBuffer":{"type":"Buffer","data":[16,149,133,98,18,26,175,97,64,157,125,174,111,62,231,174,78,132,242,8]},"announce":[],"urlList":[]}}